<svg xmlns="http://www.w3.org/2000/svg" viewBox="0 0 1600 1000"><g id="圖層_3" data-name="圖層 3"><rect y="1.28" width="1600" height="1000" fill="#fff" opacity="0.05"/></g><g id="圖層_2" data-name="圖層 2"><path d="M47.09,58l41-36.38,177.75.19,34,34.52,220.6,0,32.13-15.23s75.16-.22,120-.24" fill="none" stroke="#000" stroke-miterlimit="10" stroke-width="1.5"/><path d="M51.44,62.42A6.21,6.21,0,1,1,52,53.66,6.21,6.21,0,0,1,51.44,62.42Z"/><path d="M672.28,47.11a6.21,6.21,0,1,0-6.22-6.19A6.2,6.2,0,0,0,672.28,47.11Z"/><path d="M46.15,966.08c84.89,0,98.47-.2,98.47-.2l37.23-35.73H342.51l59.09,50.57,146.19.29L580,960.09s21.52-1.13,49.64-1.27" fill="none" stroke="#000" stroke-miterlimit="10" stroke-width="1.5"/><path d="M46.47,972.27a6.21,6.21,0,1,1,6.19-6.22A6.21,6.21,0,0,1,46.47,972.27Z"/><path d="M629.39,965.1a6.2,6.2,0,1,0-6.31-6.1A6.2,6.2,0,0,0,629.39,965.1Z"/><path d="M1136.4,960.59h302.06s1.25-7.86,111.66-118.43" fill="none" stroke="#000" stroke-miterlimit="10" stroke-width="1.5"/><path d="M1136.71,966.79a6.2,6.2,0,1,1,6.2-6.2A6.2,6.2,0,0,1,1136.71,966.79Z"/><path d="M1554.36,846.76a6.21,6.21,0,1,0-8.78.07A6.2,6.2,0,0,0,1554.36,846.76Z"/><path d="M40.25,99.54V678.18" fill="none" stroke="#000" stroke-miterlimit="10" stroke-width="1.24"/><rect x="-29.58" y="169.37" width="149.69" height="10.03" transform="translate(219.65 129.11) rotate(90)"/><rect x="27.63" y="409.63" width="35.28" height="10.03" transform="translate(459.91 369.37) rotate(90)"/><rect x="37.51" y="663.22" width="5.48" height="24.45" transform="translate(715.7 635.19) rotate(90)"/><path d="M1026,41.3h155.39" fill="none" stroke="#000" stroke-miterlimit="10" stroke-width="1.24"/><path d="M726.12,41.3H1004.5" fill="none" stroke="#000" stroke-miterlimit="10" stroke-width="1.24"/><rect x="719.39" y="36.9" width="131.15" height="8.8"/><rect x="1131.65" y="36.9" width="49.69" height="8.8"/><line x1="986.97" y1="57.59" x2="1023.27" y2="24.2" fill="none" stroke="#000" stroke-miterlimit="10" stroke-width="1.24"/><line x1="1007.8" y1="57.59" x2="1044.1" y2="24.2" fill="none" stroke="#000" stroke-miterlimit="10" stroke-width="1.24"/><line x1="1187.18" y1="35.01" x2="1187.18" y2="46.88" fill="none" stroke="#000" stroke-miterlimit="10" stroke-width="2"/><line x1="1192.86" y1="35.01" x2="1192.86" y2="46.88" fill="none" stroke="#000" stroke-miterlimit="10" stroke-width="2"/><line x1="1198.54" y1="35.01" x2="1198.54" y2="46.88" fill="none" stroke="#000" stroke-miterlimit="10" stroke-width="2"/><line x1="1204.22" y1="35.01" x2="1204.22" y2="46.88" fill="none" stroke="#000" stroke-miterlimit="10" stroke-width="2"/><line x1="1209.9" y1="35.01" x2="1209.9" y2="46.88" fill="none" stroke="#000" stroke-miterlimit="10" stroke-width="2"/><line x1="1215.58" y1="35.01" x2="1215.58" y2="46.88" fill="none" stroke="#000" stroke-miterlimit="10" stroke-width="2"/><line x1="1221.26" y1="35.01" x2="1221.26" y2="46.88" fill="none" stroke="#000" stroke-miterlimit="10" stroke-width="2"/><line x1="1226.94" y1="35.01" x2="1226.94" y2="46.88" fill="none" stroke="#000" stroke-miterlimit="10" stroke-width="2"/><line x1="1232.62" y1="35.01" x2="1232.62" y2="46.88" fill="none" stroke="#000" stroke-miterlimit="10" stroke-width="2"/><line x1="1238.3" y1="35.01" x2="1238.3" y2="46.88" fill="none" stroke="#000" stroke-miterlimit="10" stroke-width="2"/><line x1="1243.98" y1="35.01" x2="1243.98" y2="46.88" fill="none" stroke="#000" stroke-miterlimit="10" stroke-width="2"/><line x1="1249.66" y1="35.01" x2="1249.66" y2="46.88" fill="none" stroke="#000" stroke-miterlimit="10" stroke-width="2"/><path d="M1285.12,41.39c34.43-.74,208.33-.65,208.33.28l58.84,57.42s0,72.74-1.23,218.79" fill="none" stroke="#000" stroke-miterlimit="10" stroke-width="1.5"/><path d="M1285.7,47.6a6.21,6.21,0,1,1,5.93-6.47A6.2,6.2,0,0,1,1285.7,47.6Z"/><path d="M1544.84,317.53a6.21,6.21,0,1,0,6.24-6.16A6.2,6.2,0,0,0,1544.84,317.53Z"/><path d="M947.32,980.72l-18.17-12.6H831l-18.17,12.6h30.53l9.23-6.41h54.84l9.24,6.41h30.63Z"/><path d="M1054.81,948l-5.36,3.53H966L960.63,948H912.08l-7.33,4.82H854.82L847.49,948H798.94l-5.36,3.53H710.13L704.76,948H691.61l20.65,13.59h37.93l16,10.52h52.36l9-5.94H932.12l.21.13,8.82,5.81H993.4l16-10.52h37.92L1068,948Z"/><path d="M1070.74,950.28l-21.82,14.36H1011l-16,10.51H943.44L953.79,982h92.35l20.21-13.3h12.47l9.41-6.19V950.28Z"/><path d="M763.93,974.91l-16-10.52H710L688.21,950h-17.5v12.2l9.41,6.19h12l20.21,13.3h93l10.35-6.81Z"/><path d="M1550.91,341.56v9.67m20.36,5.6-1.78-4.71h-37l-1.66,4.71" fill="none" stroke="#000" stroke-miterlimit="10" stroke-width="1.5"/><path d="M1550.91,802.27v9.67m-20.12-15.27,1.66,4.71h37l1.78-4.71" fill="none" stroke="#000" stroke-miterlimit="10" stroke-width="1.5"/><rect x="1534.79" y="368.31" width="32.62" height="13.75" fill="#161616"/><rect x="1534.79" y="393.53" width="32.62" height="13.75" fill="#161616"/><rect x="1534.79" y="418.75" width="32.62" height="13.75" fill="#111"/><rect x="1534.79" y="443.97" width="32.62" height="13.75" fill="#111"/><rect x="1534.79" y="469.19" width="32.62" height="13.75" fill="#111"/><rect x="1534.79" y="494.41" width="32.62" height="13.75"/><rect x="1534.79" y="519.63" width="32.62" height="13.75"/><rect x="1534.79" y="544.85" width="32.62" height="13.75"/><rect x="1534.79" y="570.07" width="32.62" height="13.75"/><rect x="1534.79" y="595.29" width="32.62" height="13.75"/><rect x="1534.79" y="620.51" width="32.62" height="13.75"/><rect x="1534.79" y="645.73" width="32.62" height="13.75"/><rect x="1534.79" y="670.95" width="32.62" height="13.75"/><rect x="1534.79" y="696.17" width="32.62" height="13.75"/><rect x="1534.79" y="721.39" width="32.62" height="13.75"/><rect x="1534.79" y="746.61" width="32.62" height="13.75"/><rect x="1534.79" y="771.83" width="32.62" height="13.75"/><polygon points="26.31 901.63 26.47 912.13 54.19 939.85 54.04 929.35 26.31 901.63"/><polygon points="26.31 883.34 26.47 893.84 54.19 921.56 54.04 911.06 26.31 883.34"/><polygon points="26.31 865.05 26.47 875.55 54.19 903.27 54.04 892.77 26.31 865.05"/><polygon points="26.31 846.76 26.47 857.26 54.19 884.97 54.04 874.47 26.31 846.76"/><polygon points="26.31 828.47 26.47 838.97 54.19 866.68 54.04 856.18 26.31 828.47"/><polygon points="26.31 810.17 26.47 820.67 54.19 848.39 54.04 837.89 26.31 810.17"/><polygon points="26.31 791.88 26.47 802.38 54.19 830.1 54.04 819.6 26.31 791.88"/><polygon points="26.31 773.59 26.47 784.09 54.19 811.81 54.04 801.31 26.31 773.59"/><polygon points="26.31 755.3 26.47 765.8 54.19 793.51 54.04 783.01 26.31 755.3"/><polygon points="26.31 737.01 26.47 747.51 54.19 775.22 54.04 764.72 26.31 737.01"/><polygon points="26.31 718.71 26.47 729.21 54.19 756.93 54.04 746.43 26.31 718.71"/><polygon points="54.19 738.64 54.04 728.14 26.31 700.42 26.47 710.92 54.19 738.64"/><path d="M1549.31,917.62c1.22,8.25,3.92,12.67,9.85,12.67a24.55,24.55,0,0,0,8.8-2.16c-5.16,4-7.49,7.29-7.49,10.77s2.33,6.75,7.49,10.77a24.5,24.5,0,0,0-8.8-2.15c-5.93,0-8.63,4.42-9.85,12.66-1.22-8.24-3.91-12.66-9.84-12.66a24.41,24.41,0,0,0-8.8,2.15c5.15-4,7.49-7.29,7.49-10.77s-2.34-6.75-7.49-10.77a24.46,24.46,0,0,0,8.8,2.16c5.93,0,8.62-4.42,9.84-12.67m0-24.52c0,25.4-1.07,36.19-9.84,36.19-5.86,0-15.14-4.81-29.83-13.29,36.69,21.18,36.69,24.63,0,45.8,14.69-8.47,24-13.28,29.83-13.28,8.77,0,9.84,10.78,9.84,36.19,0-25.4,1.08-36.19,9.85-36.19,5.85,0,15.14,4.81,29.82,13.28-36.68-21.17-36.68-24.62,0-45.8-14.68,8.48-24,13.29-29.82,13.29-8.78,0-9.85-10.79-9.85-36.19Z"/></g></svg>
